<svg width="734" height="758" viewBox="0 0 734 758" fill="none" xmlns="http://www.w3.org/2000/svg">
<path d="M175.113 249.968V261.975H187.12V249.968V237.977H175.113V249.968Z" fill="#EBEBEB"/>
<path d="M187.12 177.974H175.113V189.981H187.12V177.974Z" fill="#EBEBEB"/>
<path d="M261.275 310.098H249.268V322.105H261.275V310.098Z" fill="#EBEBEB"/>
<path d="M187.12 201.972V213.963H175.113V225.97H187.12V237.977H199.127H211.118V249.968H223.125V237.977H235.116V225.97V213.963H223.125V225.97H211.118H199.127V213.963V201.972V189.965H187.12V201.972Z" fill="#EBEBEB"/>
<path d="M211.118 177.974H199.127V189.965H211.118H223.125V177.974H211.118Z" fill="#EBEBEB"/>
<path d="M265.117 274.446H271.569V262.439H265.117H258.682V274.446H265.117Z" fill="#EBEBEB"/>
<path d="M235.132 189.965H223.125V201.972H235.132V189.965Z" fill="#EBEBEB"/>
<path d="M319.132 237.977H307.125V249.984H319.132V237.977Z" fill="#EBEBEB"/>
<path d="M331.139 105.965H319.132V117.972H331.139V105.965Z" fill="#EBEBEB"/>
<path d="M259.13 201.972V189.965H271.121V177.974H259.13V165.967H247.123V177.974H235.116V189.965H247.123V201.972V213.963V225.97V237.977H259.13V225.97V213.963H271.121V201.972H259.13Z" fill="#EBEBEB"/>
<path d="M319.132 321.977H331.123V309.97H319.132H307.125V321.977H319.132Z" fill="#EBEBEB"/>
<path d="M307.125 105.965H295.118V117.972H307.125V105.965Z" fill="#EBEBEB"/>
<path d="M304.132 201.972V189.965H292.125V177.974H280.118V189.965V201.972H268.127V213.963H280.118H292.125V201.972H304.132Z" fill="#EBEBEB"/>
<path d="M371.867 177.974H359.86V189.981H371.867V177.974Z" fill="#EBEBEB"/>
<path d="M247.475 237.977H235.468V249.984H247.475V237.977Z" fill="#EBEBEB"/>
<path d="M295.119 165.967V153.961H307.125V141.97H319.132H331.123V129.963H319.132V117.972H307.125V129.963H295.119V141.97H283.128V153.961H271.121V165.967H283.128H295.119Z" fill="#EBEBEB"/>
<path d="M295.119 249.968V237.977H307.125V225.97H295.119H283.128V237.977H271.121V249.968H283.128H295.119Z" fill="#EBEBEB"/>
<path d="M331.123 297.963V285.973H319.132H307.125V273.966H295.119V285.973H283.128V297.963H271.121H259.13V309.97H271.121H283.128H295.119V297.963H307.125V309.97H319.132V297.963H331.123Z" fill="#EBEBEB"/>
<path d="M283.128 117.972V105.965H271.121H259.13V117.972H247.123V129.963H259.13H271.121V117.972H283.128Z" fill="#EBEBEB"/>
<path d="M283.128 129.963H271.121V141.97H283.128V129.963Z" fill="#EBEBEB"/>
<path d="M313.129 177.974H301.122V189.965V201.972V213.963H313.129H325.136V201.972H313.129V189.965H325.136V177.974H337.127V165.967H325.136V153.961H313.129V165.967V177.974Z" fill="#EBEBEB"/>
<path d="M271.137 141.97H259.13V153.977H271.137V141.97Z" fill="#EBEBEB"/>
<path d="M307.125 261.975V273.966H319.132H331.123V261.975H343.13H355.137V249.968H343.13H331.123H319.132V261.975H307.125Z" fill="#EBEBEB"/>
<path d="M371.867 213.963H359.86V225.97H371.867V213.963Z" fill="#EBEBEB"/>
<path d="M331.139 225.97H319.132V237.977H331.139V225.97Z" fill="#EBEBEB"/>
<path d="M361.124 189.965H349.134H337.127V201.972H349.134V213.963H361.124V201.972V189.965Z" fill="#EBEBEB"/>
<path d="M355.137 225.97H343.13V237.977H355.137V225.97Z" fill="#EBEBEB"/>
<path d="M223.125 298.204H259.146V249.952H210.894V261.975H199.127V273.966H210.894V285.973H199.127V297.979H210.894V298.204H211.118V309.97H199.127V333.984H211.118V321.977H223.125V298.204ZM249.892 259.205V289.206H219.891V259.205H249.892Z" fill="#EBEBEB"/>
<path d="M379.135 249.968H391.126V237.977H379.135H367.128H355.137V249.968H367.128H379.135Z" fill="#EBEBEB"/>
<path d="M379.135 201.972H391.126V189.965V177.974H379.135V189.965V201.972Z" fill="#EBEBEB"/>
<path d="M283.576 262.439H271.569V274.446V286.437H283.576V274.446V262.439Z" fill="#EBEBEB"/>
<path d="M403.133 249.968H391.126V261.975H403.133V249.968Z" fill="#EBEBEB"/>
<path d="M403.133 225.97V213.963H391.126V225.97V237.977H403.133V225.97Z" fill="#EBEBEB"/>
<path d="M187.12 309.97H175.113V321.977V333.984H187.12V321.977V309.97Z" fill="#EBEBEB"/>
<path d="M403.133 165.967V105.965H343.13V165.967H403.133ZM352.127 156.97V114.962H394.135V156.97H352.127Z" fill="#EBEBEB"/>
<path d="M385.122 123.959H361.124V147.957H385.122V123.959Z" fill="#EBEBEB"/>
<path d="M403.133 273.966H343.13V333.984H403.133V273.966ZM352.127 324.971V282.979H394.135V324.971H352.127Z" fill="#EBEBEB"/>
<path d="M385.122 291.976H361.124V315.974H385.122V291.976Z" fill="#EBEBEB"/>
<path d="M174.969 105.965V165.967H234.972V105.965H174.969ZM225.975 114.962V156.97H183.903V114.962H225.975Z" fill="#EBEBEB"/>
<path d="M216.962 123.959H192.964V147.957H216.962V123.959Z" fill="#EBEBEB"/>
<path d="M79.0383 342.355C79.812 339.313 77.9732 336.22 74.9313 335.446C71.8893 334.673 68.7962 336.511 68.0225 339.553C67.2488 342.595 69.0876 345.688 72.1295 346.462C75.1714 347.236 78.2646 345.397 79.0383 342.355Z" fill="#EBEBEB"/>
<path d="M62.2325 333.696C63.6827 332.136 65.434 330.887 67.3806 330.024C69.3272 329.16 71.4287 328.7 73.558 328.672C75.6874 328.644 77.8004 329.047 79.7693 329.858C81.7383 330.67 83.5223 331.872 85.0136 333.392C87.9113 336.321 92.4419 331.791 89.5442 328.893C87.4583 326.786 84.9715 325.118 82.2305 323.987C79.4896 322.857 76.5499 322.287 73.5851 322.311C70.6202 322.334 67.6901 322.952 64.9677 324.126C62.2453 325.301 59.7857 327.009 57.7339 329.149C54.9003 332.127 59.3349 336.674 62.2325 333.696Z" fill="#EBEBEB"/>
<path d="M42.8934 307.249C51.5224 299.788 61.8323 295.082 73.3109 295.05C84.8181 294.913 95.9436 299.173 104.417 306.961C107.41 309.778 111.957 305.28 108.963 302.462C99.3003 293.524 86.602 288.591 73.439 288.662C60.1513 288.662 48.3365 294.121 38.4108 302.718C35.209 305.408 39.8036 309.922 42.9094 307.249H42.8934Z" fill="#EBEBEB"/>
<path d="M50.4978 321.897C53.3798 318.686 56.8952 316.106 60.8228 314.32C64.7504 312.534 69.0051 311.58 73.3194 311.518C77.6336 311.457 81.9139 312.289 85.8909 313.962C89.868 315.635 93.4556 318.113 96.4282 321.241C99.3099 324.203 103.84 319.64 100.975 316.758C97.4124 313.033 93.1227 310.078 88.3717 308.079C83.6206 306.079 78.5094 305.077 73.355 305.134C68.2006 305.191 63.1129 306.306 58.4072 308.41C53.7015 310.515 49.4783 313.563 45.9992 317.367C43.2136 320.376 47.6962 324.923 50.4978 321.897Z" fill="#EBEBEB"/>
<path d="M324.944 30.3055C325.904 23.2934 315.994 17.4981 308.55 16.9057C304.996 16.6176 301.314 17.1619 297.952 15.9932C290.652 13.4478 287.738 4.03435 280.63 1.04062C275.315 -1.20066 269.184 0.784475 264.029 3.37797C258.874 5.97146 253.783 9.23734 248.019 9.60555C243.009 9.92573 237.565 8.00463 233.179 10.5181C229.977 12.3431 228.2 16.1053 225.174 18.3306C222.149 20.5558 218.386 20.9721 214.736 21.1642C211.086 21.3563 207.292 21.4043 203.978 22.9252C200.664 24.4461 197.895 27.9681 198.583 31.5542L324.944 30.3055Z" fill="#EBEBEB"/>
<path d="M13.3568 705.181C8.07318 717.429 62.5826 727.552 103.531 728.587C123.08 729.09 143.334 728.139 161.827 730.181C201.982 734.627 218.009 751.07 257.108 756.299C286.344 760.214 320.071 756.746 348.427 752.216C376.782 747.686 404.785 741.981 436.487 741.338C464.05 740.779 493.991 744.135 518.119 739.744C535.731 736.556 545.506 729.985 562.149 726.098C578.793 722.211 599.487 721.484 619.565 721.148C639.643 720.813 660.513 720.729 678.741 718.072C696.97 715.416 712.204 709.264 708.418 703L13.3568 705.181Z" fill="#EBEBEB" fill-opacity="0.7"/>
<path d="M133.698 148.966C134.562 142.674 125.693 137.487 119.001 136.959C115.799 136.703 112.598 137.183 109.492 136.126C102.96 133.853 100.35 125.416 93.9788 122.727C89.176 120.709 83.7169 122.502 79.1063 124.824C74.4956 127.145 69.917 130.075 64.698 130.411C60.1994 130.699 55.3326 129.034 51.3943 131.228C48.4646 132.828 46.9438 136.238 44.2382 138.224C41.5326 140.209 38.1547 140.577 34.8728 140.769C31.5996 140.705 28.3428 141.248 25.2673 142.37C22.2896 143.731 19.8242 146.901 20.4645 150.118L133.698 148.966Z" fill="#F5F5F5"/>
<path d="M733.627 144.515C734.555 137.775 725.046 132.22 717.89 131.708C714.48 131.436 710.942 131.964 707.708 130.827C700.712 128.394 697.91 119.349 691.09 116.419C685.983 114.274 680.108 116.179 675.161 118.676C670.214 121.174 665.315 124.296 659.792 124.664C654.989 124.968 649.754 123.175 645.544 125.528C642.342 127.273 640.741 130.891 637.876 133.021C635.01 135.15 631.36 135.55 627.854 135.742C624.348 135.934 620.714 135.966 617.528 137.439C614.342 138.912 611.684 142.242 612.357 145.716L733.627 144.515Z" fill="#F5F5F5"/>
<path d="M719.346 703.701C719.346 703.925 558.454 704.117 360.02 704.117C161.586 704.117 0.661133 703.925 0.661133 703.701C0.661133 703.477 161.49 703.284 360.004 703.284C558.518 703.284 719.346 703.461 719.346 703.701Z" fill="#263238"/>
<path d="M633.281 633.276C634.86 634.031 636.27 635.097 637.428 636.409C638.586 637.721 639.468 639.252 640.021 640.913C641.11 644.251 641.417 647.795 640.917 651.271C640.165 657.994 636.339 664.782 632.224 670.145C626.573 665.215 625.26 656.586 624.876 652.183C624.268 645.203 627.406 632.236 633.281 633.276Z" fill="#6BA32D"/>
<path d="M638.804 681.192C638.427 679.271 638.559 677.285 639.189 675.431C639.818 673.577 640.922 671.92 642.39 670.626C643.889 669.367 645.624 668.419 647.493 667.836C649.362 667.254 651.328 667.048 653.276 667.232C654.185 667.214 655.087 667.397 655.917 667.768C656.748 668.139 657.486 668.688 658.079 669.377C658.501 670.107 658.723 670.935 658.723 671.778C658.723 672.621 658.501 673.45 658.079 674.18C657.22 675.643 655.988 676.853 654.509 677.686C649.61 680.76 644.295 682.841 638.756 681.176" fill="#6BA32D"/>
<path d="M631.552 701.844C631.582 701.381 631.646 700.92 631.744 700.467C631.936 699.49 632.16 698.242 632.432 696.737C633.063 692.578 634.366 688.55 636.291 684.81C638.284 681.075 641.234 677.936 644.84 675.717C645.936 675.047 647.107 674.51 648.33 674.116C648.66 674.01 648.997 673.924 649.338 673.86C649.455 673.838 649.574 673.838 649.69 673.86C648.064 674.416 646.498 675.135 645.016 676.005C641.525 678.261 638.666 681.368 636.707 685.034C634.826 688.737 633.499 692.696 632.769 696.785C632.432 698.386 632.16 699.618 631.936 700.483C631.859 700.949 631.73 701.406 631.552 701.844Z" fill="#263238"/>
<path d="M631.76 643.362C631.787 643.564 631.787 643.768 631.76 643.97C631.76 644.419 631.76 644.979 631.872 645.699C631.952 647.204 632.032 649.381 632.128 652.103C632.304 657.482 632.433 664.91 632.4 673.155C632.368 681.4 632.16 688.828 631.936 694.207C631.84 696.897 631.728 699.01 631.632 700.611C631.632 701.315 631.632 701.892 631.52 702.34C631.517 702.545 631.49 702.749 631.44 702.948C631.416 702.746 631.416 702.542 631.44 702.34C631.44 701.892 631.44 701.315 631.44 700.595C631.44 698.994 631.536 696.865 631.6 694.191C631.728 688.812 631.872 681.384 631.904 673.155C631.936 664.926 631.904 657.498 631.776 652.119C631.776 649.462 631.696 647.316 631.68 645.715C631.68 645.011 631.68 644.435 631.68 643.986C631.681 643.776 631.708 643.566 631.76 643.362Z" fill="#263238"/>
<path d="M628.959 685.338C628.273 681.264 626.628 677.411 624.159 674.098C621.69 670.785 618.467 668.108 614.758 666.287C612.869 665.391 610.404 664.798 608.835 666.207C607.266 667.616 607.634 670.129 608.403 672.099C610.074 676.177 612.922 679.665 616.582 682.12C620.243 684.575 624.551 685.884 628.959 685.882" fill="#6BA32D"/>
<path d="M615.735 672.659C616.152 672.793 616.554 672.97 616.935 673.187C617.404 673.397 617.859 673.638 618.296 673.908C618.891 674.24 619.468 674.604 620.025 674.996C620.711 675.453 621.368 675.95 621.994 676.485C622.734 677.079 623.44 677.715 624.108 678.39C625.629 679.945 626.967 681.669 628.094 683.529C629.204 685.404 630.091 687.403 630.735 689.485C631.227 691.19 631.565 692.937 631.744 694.704C631.84 695.456 631.744 696.144 631.84 696.737C631.869 697.27 631.869 697.804 631.84 698.338C631.832 698.773 631.784 699.208 631.696 699.634C631.584 699.634 631.776 697.777 631.44 694.832C631.344 694.095 631.248 693.231 631.056 692.414C630.863 691.598 630.623 690.653 630.351 689.709C629.697 687.674 628.816 685.719 627.726 683.881C626.616 682.054 625.312 680.353 623.835 678.806C623.185 678.132 622.501 677.491 621.786 676.885C621.175 676.347 620.534 675.845 619.865 675.38C617.4 673.539 615.687 672.755 615.735 672.659Z" fill="#263238"/>
<path d="M203.21 703.717C202.738 702.223 202.369 700.698 202.105 699.154C200.448 691.844 197.973 684.745 194.725 677.99C193.981 676.61 193.318 675.188 192.74 673.731C193.726 674.958 194.564 676.296 195.237 677.718C198.822 684.414 201.334 691.631 202.681 699.106C203.022 700.62 203.199 702.165 203.21 703.717Z" fill="#263238"/>
<path d="M217.41 634.429C217.34 635.344 217.206 636.254 217.01 637.15C216.689 638.879 216.257 641.393 215.761 644.499C214.736 650.726 213.552 659.339 212.815 668.913C212.079 678.486 211.951 687.211 211.999 693.503C211.999 696.705 211.999 699.202 212.127 700.963C212.196 701.874 212.196 702.79 212.127 703.701C211.95 702.803 211.849 701.893 211.823 700.979C211.678 699.218 211.534 696.673 211.438 693.519C211.178 685.291 211.365 677.056 211.999 668.849C212.63 660.649 213.699 652.488 215.201 644.403C215.793 641.297 216.305 638.799 216.721 637.086C216.883 636.184 217.113 635.296 217.41 634.429Z" fill="#263238"/>
<path d="M240.207 674.308C239.383 675.65 238.491 676.948 237.533 678.198C235.424 681.325 233.592 684.63 232.058 688.076C230.556 691.536 229.372 695.127 228.52 698.802C228.243 700.351 227.885 701.885 227.448 703.397C227.42 701.808 227.587 700.222 227.944 698.674C229.347 691.131 232.463 684.01 237.053 677.862C237.946 676.546 239.006 675.351 240.207 674.308Z" fill="#263238"/>
<path d="M519.311 679.591C520.137 680.573 520.846 681.647 521.425 682.793C522.609 684.826 524.146 687.708 525.667 690.957C527.188 694.207 528.405 697.265 529.205 699.474C529.719 700.646 530.085 701.878 530.294 703.14C529.65 702.048 529.114 700.895 528.693 699.698C527.764 697.537 526.467 694.559 524.947 691.31C523.426 688.06 521.985 685.162 520.928 683.065C520.265 681.969 519.722 680.804 519.311 679.591Z" fill="#263238"/>
<path d="M548.768 650.358C548.698 651.064 548.558 651.761 548.352 652.439C548.016 653.928 547.584 655.801 547.055 658.042C545.999 662.845 544.702 669.345 543.725 676.677C542.749 684.009 542.301 690.717 542.125 695.552C542.045 697.857 541.981 699.778 541.932 701.299C541.956 702.007 541.902 702.716 541.772 703.413C541.651 702.715 541.592 702.008 541.596 701.299C541.596 699.939 541.516 697.969 541.596 695.536C541.694 689.196 542.159 682.867 542.989 676.581C543.818 670.289 545.015 664.05 546.575 657.898C547.183 655.545 547.728 653.656 548.176 652.359C548.296 651.672 548.495 651 548.768 650.358Z" fill="#263238"/>
<path d="M335.67 663.39C336.204 663.695 336.694 664.072 337.127 664.51C338.389 665.597 339.592 666.751 340.729 667.968C348.308 676.023 353.665 685.909 356.274 696.657C356.682 698.275 356.992 699.916 357.202 701.571C357.324 702.172 357.378 702.784 357.362 703.397C357.218 703.397 356.818 700.835 355.761 696.817C352.844 686.283 347.554 676.557 340.296 668.384C337.591 665.183 335.574 663.582 335.67 663.39Z" fill="#263238"/>
<path d="M363.414 646.356C363.482 647.112 363.482 647.873 363.414 648.629C363.414 650.23 363.414 652.327 363.414 654.809C363.414 660.028 363.622 667.232 364.31 675.172C364.999 683.113 366.055 690.237 366.952 695.376C367.384 697.825 367.752 699.875 368.04 701.459C368.222 702.199 368.329 702.956 368.361 703.717C368.09 703.004 367.876 702.27 367.72 701.524C367.352 700.115 366.888 698.049 366.375 695.488C363.701 682.1 362.509 668.458 362.821 654.809C362.821 652.183 362.982 650.006 363.11 648.613C363.135 647.852 363.237 647.096 363.414 646.356Z" fill="#263238"/>
<path d="M387.908 680.295C388.148 680.423 385.394 685.226 383.505 691.726C381.616 698.226 381.264 703.733 381.008 703.717C380.828 702.512 380.828 701.287 381.008 700.083C381.26 697.172 381.796 694.292 382.609 691.486C383.417 688.685 384.489 685.967 385.811 683.369C386.364 682.252 387.07 681.218 387.908 680.295Z" fill="#263238"/>
<path d="M60.5035 551.389H41.9168V698.946H60.5035V551.389Z" fill="#455A64"/>
<path d="M60.5195 698.93C60.5195 698.93 60.5195 698.674 60.5195 698.162V695.952C60.5195 693.983 60.5195 691.15 60.5195 687.467C60.5195 680.087 60.5195 669.425 60.3915 656.185C60.3915 629.69 60.2794 592.869 60.2154 551.389L60.6316 551.805H41.9168L42.3331 551.389C42.237 616.018 42.157 671.986 42.109 698.93L41.9168 698.754L55.7008 698.85H59.2868H60.5195C60.5195 698.85 60.1353 698.85 59.3509 698.85H55.8128L41.9168 698.946H41.7407V698.754C41.7407 671.81 41.6127 615.842 41.5006 551.213L41.9168 550.797H60.9358V551.213C60.9358 592.837 60.7917 629.738 60.7597 656.313C60.7597 669.505 60.6636 680.135 60.6316 687.499C60.6316 691.117 60.6316 693.903 60.6316 695.888V698.049C60.5355 698.706 60.5195 698.93 60.5195 698.93Z" fill="#263238"/>
<g opacity="0.3">
<path d="M60.5035 554.975H41.9168V561.123H60.5035V554.975Z" fill="black"/>
</g>
<path d="M455.947 551.389H437.36V698.946H455.947V551.389Z" fill="#455A64"/>
<path d="M455.947 698.93C455.947 698.93 455.947 698.674 455.947 698.162V695.952C455.947 693.983 455.947 691.15 455.947 687.467C455.947 680.087 455.947 669.425 455.819 656.185C455.819 629.69 455.723 592.869 455.643 551.389L456.059 551.805H437.36L437.776 551.389C437.664 616.018 437.584 671.986 437.536 698.93L437.36 698.754L451.144 698.85H454.714H455.947C455.947 698.85 455.563 698.85 454.778 698.85H451.256L437.36 698.946H437.168V698.754C437.168 671.81 437.04 615.842 436.944 551.213L437.36 550.797H456.363V551.213C456.363 592.837 456.235 629.738 456.187 656.313C456.187 669.505 456.091 680.135 456.059 687.499C456.059 691.117 456.059 693.903 456.059 695.888V698.049C455.963 698.706 455.947 698.93 455.947 698.93Z" fill="#263238"/>
<path d="M426.81 422.131H408.223V545.13H426.81V422.131Z" fill="#455A64"/>
<path d="M426.826 545.114C426.803 544.895 426.803 544.675 426.826 544.457V542.616C426.826 541.015 426.826 538.598 426.826 535.572C426.826 529.408 426.746 520.555 426.698 509.525C426.698 487.464 426.586 456.791 426.522 422.115L426.938 422.531H408.24C409.056 421.699 408.464 422.323 408.64 422.147V441.662C408.64 448.066 408.64 454.293 408.64 460.377C408.64 472.544 408.64 484.038 408.64 494.62C408.56 515.753 408.512 533.219 408.48 545.114L408.272 544.905L422.023 545.017H425.625H426.874H425.69H422.152L408.272 545.13H408.031V545.114C408.031 533.219 407.951 515.753 407.887 494.62C407.887 484.038 407.887 472.544 407.887 460.377C407.887 454.293 407.887 448.055 407.887 441.662V422.163C408.079 421.971 407.471 422.547 408.32 421.715H427.242V422.131C427.242 456.919 427.114 487.769 427.066 509.845C427.066 520.828 426.97 529.649 426.954 535.78C426.954 538.774 426.954 541.111 426.954 542.744C426.954 543.497 426.954 544.105 426.954 544.537C426.954 544.969 426.826 545.114 426.826 545.114Z" fill="#263238"/>
<path d="M96.092 422.131H77.5053V545.13H96.092V422.131Z" fill="#455A64"/>
<path d="M96.108 545.114C96.095 544.895 96.095 544.676 96.108 544.457C96.108 544.009 96.108 543.401 96.108 542.616C96.108 541.015 96.108 538.598 96.108 535.572C96.108 529.408 96.108 520.555 95.9799 509.525C95.9799 487.464 95.8679 456.791 95.8038 422.115L96.2201 422.531H77.5213C78.3378 421.699 77.7454 422.323 77.9215 422.147V441.662C77.9215 448.066 77.9215 454.304 77.9215 460.377C77.9215 472.544 77.9215 484.038 77.9215 494.62C77.9215 515.753 77.7935 533.219 77.7614 545.114L77.5533 544.905L91.3052 545.017H94.9073H96.156H94.9713H91.4333L77.5533 545.13H77.3612V545.114C77.3612 533.219 77.2652 515.753 77.2011 494.62C77.2011 484.038 77.2011 472.544 77.2011 460.377C77.2011 454.293 77.2011 448.055 77.2011 441.662V422.163C77.3932 421.971 76.7849 422.547 77.6334 421.715H96.5242V422.131C96.5242 456.919 96.3802 487.769 96.3321 509.845C96.3321 520.828 96.3321 529.649 96.2201 535.78C96.2201 538.774 96.2201 541.111 96.2201 542.744C96.2201 543.497 96.2201 544.105 96.2201 544.537C96.2201 544.969 96.108 545.114 96.108 545.114Z" fill="#263238"/>
<path d="M462.687 408.091H40.8282V427.782H462.687V408.091Z" fill="#455A64"/>
<path d="M462.687 427.782C462.687 427.782 462.687 427.382 462.687 426.581C462.687 425.781 462.687 424.58 462.687 422.963C462.687 419.761 462.687 414.815 462.687 408.091L462.799 408.219L40.9563 408.507L41.3725 408.091V427.782L40.9563 427.366L339.848 427.542L429.836 427.67H454.266H460.67H462.847H460.718H454.41H430.092L340.2 427.798L40.8282 428.246H40.412V407.674H40.8442L462.687 407.979H462.815V408.091C462.815 414.847 462.815 419.777 462.815 423.027C462.815 424.628 462.815 425.829 462.815 426.629C462.815 427.43 462.687 427.782 462.687 427.782Z" fill="#263238"/>
<path d="M463.775 437.628H41.9168V457.319H463.775V437.628Z" fill="#455A64"/>
<path d="M463.775 457.319C463.775 457.319 463.775 456.919 463.775 456.118C463.775 455.318 463.775 454.117 463.775 452.5C463.775 449.298 463.775 444.352 463.775 437.628L463.888 437.74L42.0609 438.044L42.4772 437.628V457.319L42.0609 456.903L340.793 457.063L430.78 457.175H455.21H461.614H463.791H461.678H455.371H431.037L341.145 457.303L41.9329 457.479H41.5166V437.211H41.9649L463.791 437.516H463.92V437.628C463.92 444.384 463.92 449.314 463.92 452.564C463.92 454.165 463.92 455.35 463.92 456.15C463.92 456.951 463.775 457.319 463.775 457.319Z" fill="#263238"/>
<path d="M463.775 468.253H41.9168V487.945H463.775V468.253Z" fill="#455A64"/>
<path d="M463.775 487.945C463.775 487.945 463.775 487.544 463.775 486.744C463.775 485.943 463.775 484.743 463.775 483.126C463.775 479.924 463.775 474.977 463.775 468.253L463.888 468.365L42.0609 468.67L42.4772 468.253V487.945L42.0609 487.528L340.969 487.705L430.957 487.833H455.387H461.79H463.968H461.854H455.547H431.213L341.321 487.961L42.109 488.137H41.6927V467.837H42.141L463.968 468.141H464.096V468.269C464.096 475.025 464.096 479.956 464.096 483.206C464.096 484.807 464.096 485.991 464.096 486.808C464.096 487.624 463.775 487.945 463.775 487.945Z" fill="#263238"/>
<path d="M463.775 498.879H41.9168V518.57H463.775V498.879Z" fill="#455A64"/>
<path d="M463.775 518.57C463.775 518.57 463.775 518.17 463.775 517.37C463.775 516.569 463.775 515.368 463.775 513.751C463.775 510.55 463.775 505.603 463.775 498.879L463.888 499.007L42.0609 499.295L42.4772 498.879V518.57L42.0609 518.154L340.969 518.33L430.957 518.458H455.387H461.79H463.968H461.854H455.547H431.213L341.321 518.586L42.109 518.762H41.6927V498.463H42.141L463.968 498.767H464.096V498.879C464.096 505.635 464.096 510.566 464.096 513.816C464.096 515.416 464.096 516.617 464.096 517.418C464.096 518.218 463.775 518.57 463.775 518.57Z" fill="#263238"/>
<path d="M471.46 535.284H23.6023V554.975H471.46V535.284Z" fill="#455A64"/>
<path d="M471.46 554.975C471.46 554.975 471.46 554.575 471.46 553.775C471.46 552.974 471.46 551.773 471.46 550.156C471.46 546.955 471.46 542.008 471.46 535.284L471.588 535.396L23.7464 535.7L24.1626 535.284V554.975L23.7464 554.559L341.017 554.719L436.576 554.847H462.527H469.283C470.804 554.847 471.604 554.847 471.604 554.847H469.331H462.463H436.608L341.161 554.975L23.5703 555.151H23.154V534.868H23.5863L471.428 535.172H471.54V535.284C471.54 542.04 471.54 546.971 471.54 550.22C471.54 551.821 471.54 553.006 471.54 553.807C471.54 554.607 471.46 554.975 471.46 554.975Z" fill="#263238"/>
<g opacity="0.3">
<path d="M455.947 554.975H437.36V561.123H455.947V554.975Z" fill="black"/>
</g>
<path d="M229.225 308.69L225.206 334.608L214.864 358.206L199.543 348.424L194.084 334.656L189.522 323.098C189.522 323.098 173.336 327.004 166.885 311.891C163.779 304.591 158.592 289.03 154.077 274.878C151.733 267.533 152.244 259.574 155.508 252.589C158.772 245.604 164.549 240.106 171.687 237.192L173.144 236.584C189.362 230.997 203.162 241.643 208.284 257.988L229.321 308.722" fill="#A2675F"/>
<path d="M189.506 323.098C196.581 320.34 202.673 315.536 207.004 309.298C207.004 309.298 206.828 322.185 191.091 327.052L189.506 323.098Z" fill="#7A4A45"/>
<path d="M163.955 286.453C164.18 287.022 164.62 287.481 165.18 287.729C165.74 287.978 166.375 287.996 166.949 287.782C167.234 287.69 167.498 287.541 167.725 287.346C167.952 287.15 168.137 286.91 168.27 286.642C168.403 286.373 168.481 286.08 168.498 285.781C168.516 285.482 168.474 285.182 168.374 284.9C168.148 284.33 167.708 283.872 167.148 283.623C166.588 283.375 165.953 283.356 165.38 283.571C165.095 283.663 164.831 283.811 164.604 284.007C164.377 284.203 164.191 284.442 164.059 284.711C163.926 284.98 163.848 285.272 163.83 285.571C163.812 285.871 163.855 286.17 163.955 286.453Z" fill="#263238"/>
<path d="M159.889 280.225C160.273 280.401 161.49 278.512 163.763 277.552C166.036 276.591 168.293 277.055 168.422 276.671C168.55 276.287 168.005 276.095 167.045 275.855C165.727 275.546 164.346 275.652 163.09 276.159C161.874 276.66 160.848 277.535 160.161 278.656C159.681 279.537 159.649 280.161 159.889 280.225Z" fill="#263238"/>
<path d="M184.335 277.36C184.56 277.929 185 278.387 185.56 278.636C186.12 278.884 186.755 278.903 187.328 278.688C187.615 278.598 187.881 278.451 188.109 278.256C188.338 278.061 188.525 277.822 188.66 277.553C188.794 277.284 188.873 276.991 188.892 276.691C188.911 276.391 188.869 276.09 188.769 275.807C188.541 275.24 188.1 274.784 187.542 274.536C186.983 274.288 186.349 274.267 185.776 274.478C185.489 274.568 185.223 274.715 184.995 274.91C184.766 275.105 184.579 275.344 184.444 275.613C184.31 275.882 184.231 276.175 184.212 276.475C184.193 276.775 184.235 277.076 184.335 277.36Z" fill="#263238"/>
<path d="M182.862 269.995C183.23 270.203 184.575 268.394 186.992 267.738C189.41 267.082 191.555 267.738 191.795 267.37C192.035 267.002 191.459 266.761 190.514 266.409C189.242 266.016 187.88 266.016 186.608 266.409C185.34 266.774 184.219 267.53 183.406 268.57C182.782 269.291 182.686 269.899 182.862 269.995Z" fill="#263238"/>
<path d="M182.189 292.744C180.802 292.861 179.435 293.157 178.123 293.625C177.499 293.801 176.89 293.913 176.618 293.625C176.309 293.035 176.192 292.364 176.282 291.704C176.282 290.028 176.25 288.267 176.186 286.421C175.962 278.944 175.546 272.893 175.258 272.909C174.969 272.925 174.873 278.992 175.097 286.469C175.097 288.31 175.226 290.055 175.274 291.736C175.201 292.609 175.433 293.48 175.93 294.201C176.102 294.38 176.312 294.516 176.546 294.6C176.779 294.683 177.029 294.711 177.275 294.681C177.643 294.632 178.004 294.535 178.347 294.393C179.691 294.003 180.981 293.449 182.189 292.744Z" fill="#263238"/>
<path d="M178.379 260.038C178.876 260.582 181.085 259.317 183.967 258.437C186.848 257.556 189.378 257.476 189.506 256.836C189.506 256.499 188.913 256.051 187.777 255.811C186.273 255.547 184.729 255.629 183.262 256.051C181.794 256.472 180.442 257.222 179.308 258.245C178.459 259.061 178.155 259.781 178.379 260.038Z" fill="#263238"/>
<path d="M156.495 271.036C157.135 271.388 158.512 270.187 160.433 269.355C162.354 268.522 164.163 268.25 164.307 267.53C164.307 267.194 163.891 266.777 162.962 266.569C161.755 266.334 160.504 266.491 159.392 267.018C158.259 267.502 157.307 268.331 156.671 269.387C156.207 270.203 156.207 270.844 156.495 271.036Z" fill="#263238"/>
<path d="M211.582 269.755C211.807 269.547 220.772 262.375 224.71 272.957C228.648 283.539 217.266 285.284 217.138 284.98C217.01 284.676 211.582 269.755 211.582 269.755Z" fill="#A2675F"/>
<path d="M218.867 279.713C218.867 279.713 219.091 279.713 219.459 279.793C219.961 279.809 220.452 279.637 220.836 279.313C221.348 278.635 221.671 277.833 221.773 276.989C221.874 276.145 221.749 275.29 221.412 274.51C221.1 273.596 220.586 272.764 219.907 272.076C219.688 271.781 219.4 271.545 219.067 271.389C218.735 271.232 218.369 271.161 218.002 271.18C217.769 271.202 217.551 271.306 217.387 271.473C217.223 271.64 217.123 271.859 217.106 272.092C217.106 272.445 217.218 272.621 217.106 272.669C216.994 272.717 216.817 272.573 216.737 272.108C216.701 271.824 216.763 271.536 216.913 271.292C217.119 270.961 217.447 270.725 217.826 270.636C218.29 270.562 218.766 270.607 219.208 270.766C219.65 270.926 220.045 271.195 220.355 271.548C221.139 272.299 221.732 273.227 222.084 274.254C222.821 276.399 222.469 278.8 221.108 279.809C220.856 279.996 220.566 280.124 220.259 280.185C219.952 280.246 219.635 280.238 219.331 280.161C218.979 279.953 218.835 279.745 218.867 279.713Z" fill="#7A4A45"/>
<path d="M145.08 257.796C144.833 256.703 144.914 255.56 145.312 254.513C145.711 253.465 146.41 252.558 147.321 251.905C146.481 251.105 145.938 250.043 145.781 248.893C145.625 247.744 145.864 246.575 146.461 245.58C147.057 244.584 147.975 243.822 149.062 243.418C150.15 243.014 151.343 242.992 152.444 243.356C152.157 242.571 152.061 241.73 152.163 240.901C152.265 240.071 152.563 239.278 153.032 238.587C153.501 237.896 154.128 237.326 154.861 236.925C155.594 236.524 156.412 236.303 157.247 236.28C156.811 235.375 156.695 234.349 156.918 233.37C157.141 232.391 157.69 231.517 158.475 230.89C159.26 230.263 160.234 229.921 161.238 229.921C162.242 229.92 163.217 230.26 164.003 230.885C164.235 229.761 164.716 228.704 165.412 227.791C166.108 226.879 167 226.134 168.022 225.613C169.044 225.092 170.171 224.808 171.318 224.781C172.465 224.754 173.604 224.985 174.649 225.458C176.473 223.916 178.798 223.096 181.186 223.155C183.573 223.215 185.856 224.148 187.601 225.778C189.354 225.2 191.24 225.156 193.019 225.652C194.797 226.148 196.389 227.162 197.59 228.563C198.724 228.201 199.934 228.143 201.097 228.397C202.26 228.65 203.336 229.206 204.216 230.008C205.096 230.81 205.749 231.83 206.109 232.965C206.469 234.1 206.524 235.309 206.267 236.472C207.035 236.574 207.769 236.852 208.413 237.284C209.056 237.715 209.591 238.289 209.977 238.961C210.362 239.633 210.588 240.385 210.636 241.158C210.684 241.932 210.553 242.705 210.254 243.42C211.18 243.494 212.066 243.827 212.811 244.383C213.556 244.938 214.128 245.693 214.463 246.559C214.797 247.426 214.88 248.37 214.702 249.281C214.524 250.193 214.092 251.036 213.455 251.713C215.056 251.265 216.513 253.042 216.657 254.706C216.585 256.368 216.424 258.025 216.177 259.669C216.177 261.046 216.545 262.391 216.609 263.768C216.661 265.061 216.429 266.349 215.932 267.544C215.434 268.738 214.682 269.81 213.728 270.684L214.128 270.892C214.944 272.109 213.471 273.789 211.999 273.773C210.535 273.561 209.168 272.915 208.076 271.916C206.633 271.054 205.332 269.974 204.218 268.715C203.674 268.069 203.354 267.263 203.308 266.42C203.262 265.577 203.491 264.741 203.962 264.04C202.936 264.037 201.929 263.765 201.041 263.251C200.153 262.737 199.416 261.999 198.903 261.11C197.892 259.326 197.214 257.373 196.902 255.347L194.981 246.494C193.062 247.204 190.985 247.375 188.975 246.988C186.966 246.601 185.101 245.672 183.582 244.301C183.09 245.066 182.441 245.718 181.677 246.214C180.914 246.709 180.053 247.035 179.153 247.172C178.254 247.308 177.335 247.251 176.459 247.004C175.583 246.758 174.769 246.327 174.073 245.741C174.162 247.86 173.443 249.934 172.061 251.542C170.679 253.15 168.737 254.173 166.629 254.402C167.925 256.387 164.884 259.974 162.994 261.414C161.441 262.312 159.636 262.678 157.856 262.455C157.856 262.455 155.102 266.105 152.781 266.137C150.459 266.169 146.825 264.728 147.273 262.151C146.209 260.892 145.458 259.4 145.08 257.796Z" fill="#263238"/>
<path d="M210.798 243.164C210.772 243.785 210.608 244.392 210.318 244.941C210.146 245.219 209.912 245.453 209.634 245.625C209.356 245.798 209.042 245.903 208.717 245.933C208.318 245.981 207.915 245.919 207.548 245.756C207.182 245.592 206.867 245.333 206.636 245.005L206.251 244.429L205.947 245.053C205.682 245.532 205.295 245.932 204.826 246.213C204.356 246.494 203.821 246.646 203.274 246.654C202.656 246.626 202.061 246.41 201.569 246.035C201.078 245.66 200.711 245.145 200.52 244.557L200.344 243.916L199.88 244.381C199.601 244.654 199.271 244.87 198.908 245.016C198.545 245.162 198.157 245.234 197.766 245.229C197.136 245.226 196.524 245.018 196.021 244.637C195.157 243.98 194.965 243.292 194.869 243.324C194.773 243.356 194.869 244.124 195.717 244.925C196.268 245.444 196.98 245.761 197.734 245.821C198.223 245.854 198.714 245.788 199.176 245.625C199.638 245.463 200.063 245.208 200.424 244.877L199.768 244.701C199.963 245.432 200.379 246.085 200.96 246.571C201.54 247.058 202.256 247.353 203.01 247.418C203.764 247.483 204.52 247.313 205.174 246.933C205.829 246.553 206.35 245.98 206.668 245.293H205.979C206.298 245.729 206.732 246.068 207.233 246.271C207.733 246.475 208.28 246.535 208.813 246.446C209.218 246.37 209.601 246.202 209.931 245.955C210.262 245.708 210.531 245.389 210.718 245.021C211.326 243.916 210.846 243.1 210.798 243.164Z" fill="#455A64"/>
<path d="M216.465 252.481C216.385 252.481 216.225 252.929 215.537 253.378C215.085 253.69 214.549 253.857 214 253.857C213.451 253.857 212.915 253.69 212.463 253.378L212.111 253.09L211.951 253.522C211.751 254.003 211.432 254.425 211.022 254.748C210.613 255.07 210.128 255.282 209.613 255.363C209.018 255.427 208.417 255.308 207.89 255.022C207.364 254.736 206.938 254.297 206.668 253.762L206.347 253.09L205.931 253.698C205.824 253.855 205.695 253.995 205.547 254.114C205.214 254.389 204.805 254.553 204.374 254.585C203.944 254.616 203.515 254.513 203.146 254.29C202.819 254.066 202.56 253.756 202.396 253.395C202.232 253.034 202.171 252.635 202.217 252.241L202.329 251.441L201.641 251.857C200.851 252.326 199.909 252.47 199.015 252.257C198.303 252.098 197.662 251.71 197.19 251.152C196.791 250.624 196.458 250.048 196.198 249.439C196.16 249.799 196.197 250.163 196.307 250.507C196.418 250.852 196.598 251.17 196.838 251.441C197.325 252.128 198.03 252.63 198.839 252.865C199.369 253.025 199.926 253.076 200.476 253.016C201.026 252.955 201.558 252.784 202.041 252.513L201.513 252.145C201.432 252.685 201.504 253.238 201.722 253.739C201.94 254.24 202.295 254.669 202.745 254.979C203.254 255.311 203.856 255.474 204.463 255.442C205.07 255.41 205.652 255.187 206.123 254.803C206.335 254.624 206.523 254.419 206.684 254.194H205.947C206.249 254.847 206.738 255.394 207.353 255.766C207.968 256.139 208.681 256.318 209.399 256.282C210.117 256.246 210.807 255.996 211.382 255.564C211.957 255.132 212.389 254.538 212.623 253.858L212.111 254.002C212.421 254.228 212.774 254.388 213.148 254.474C213.523 254.559 213.91 254.567 214.288 254.498C214.878 254.433 215.435 254.193 215.889 253.81C216.465 253.058 216.513 252.481 216.465 252.481Z" fill="#455A64"/>
<path d="M158.528 235.415C158.754 234.98 159.058 234.589 159.424 234.263C159.674 234.055 159.963 233.901 160.275 233.811C160.587 233.721 160.914 233.696 161.235 233.738C161.557 233.78 161.867 233.888 162.145 234.056C162.423 234.223 162.663 234.446 162.85 234.711L163.235 235.239L163.331 234.583C163.444 233.897 163.73 233.25 164.161 232.704C164.592 232.158 165.155 231.731 165.796 231.461C166.579 231.158 167.438 231.112 168.249 231.327C169.06 231.543 169.782 232.01 170.311 232.662L170.791 233.254L170.983 232.518C171.196 231.804 171.565 231.146 172.064 230.593C172.562 230.039 173.177 229.603 173.865 229.316C174.608 229.021 175.413 228.916 176.207 229.011C177.001 229.106 177.759 229.398 178.411 229.86C178.953 230.238 179.411 230.723 179.756 231.285L179.996 231.669L180.364 231.397C181.24 230.773 182.299 230.461 183.373 230.51C184.447 230.559 185.473 230.967 186.288 231.669C186.97 232.321 187.451 233.154 187.675 234.07C187.899 234.986 187.857 235.947 187.553 236.84L187.328 237.433L187.937 237.288C189.291 237.001 190.704 237.254 191.875 237.993C192.775 238.567 193.474 239.406 193.876 240.394C194.2 241.271 194.368 242.197 194.373 243.132C194.373 243.132 194.501 242.892 194.533 242.395C194.596 241.668 194.498 240.935 194.244 240.25C193.867 239.149 193.142 238.199 192.179 237.545C191.545 237.109 190.831 236.802 190.079 236.643C189.326 236.484 188.549 236.474 187.793 236.616L188.193 237.08C188.646 235.976 188.724 234.753 188.414 233.599C188.104 232.446 187.423 231.427 186.476 230.699C185.53 229.971 184.37 229.574 183.176 229.57C181.982 229.566 180.82 229.955 179.868 230.677L180.477 230.789C180.061 230.149 179.516 229.603 178.876 229.188C178.109 228.642 177.217 228.298 176.282 228.189C175.347 228.08 174.4 228.209 173.529 228.563C172.727 228.903 172.013 229.419 171.439 230.074C170.866 230.728 170.447 231.503 170.215 232.342L170.903 232.198C170.337 231.494 169.575 230.973 168.713 230.701C167.851 230.429 166.928 230.419 166.061 230.67C165.193 230.922 164.419 231.425 163.836 232.115C163.254 232.806 162.888 233.653 162.786 234.551L163.267 234.423C162.992 234.076 162.642 233.797 162.242 233.608C161.842 233.419 161.404 233.325 160.961 233.334C160.309 233.359 159.689 233.62 159.216 234.071C158.927 234.339 158.707 234.675 158.576 235.047C158.512 235.271 158.512 235.415 158.528 235.415Z" fill="#455A64"/>
<path d="M189.138 290.199C188.753 290.327 189.794 292.872 188.369 295.562C186.944 298.252 184.127 299.084 184.239 299.452C184.351 299.82 185.055 299.692 186.208 299.26C187.701 298.668 188.936 297.568 189.698 296.154C190.433 294.797 190.611 293.206 190.194 291.72C189.858 290.567 189.314 290.103 189.138 290.199Z" fill="#263238"/>
<path d="M173.545 336.305L160.865 372.022L163.795 411.084L171.8 478.563C171.8 478.563 201.529 468.525 202.873 469.534C204.218 470.543 189.714 401.127 189.714 401.127L200.2 344.646L199.527 328.013L173.545 336.305Z" fill="#6BA32D"/>
<path d="M173.545 336.305L159.601 368.324L130.784 379.626L100.655 388.96L104.881 410.636C105.09 411.689 105.513 412.687 106.123 413.57C106.733 414.452 107.518 415.2 108.429 415.767C109.339 416.335 110.357 416.709 111.418 416.867C112.479 417.026 113.562 416.964 114.599 416.688L140.101 409.836L163.859 408.747L176.218 380.027L173.545 336.305Z" fill="#6BA32D"/>
<path d="M110.5 380.043L112.613 377.417C114.693 377.399 116.75 377.847 118.633 378.73C121.392 380.998 123.415 384.035 124.444 387.455C124.676 389.915 124.676 392.391 124.444 394.851L110.036 380.043" fill="#A2675F"/>
<path d="M82.4041 364.482C82.4041 364.914 109.62 393.746 109.62 393.746L114.743 398.805H131.072L99.3739 363.585L85.702 361.248L82.4041 364.482Z" fill="#263238"/>
<path d="M192.788 428.534C192.545 428.221 192.336 427.883 192.163 427.526L190.562 424.548C189.186 421.955 187.232 418.144 184.959 413.342C182.255 407.791 179.85 402.1 177.755 396.292C177.156 394.599 176.659 392.873 176.266 391.121C176.063 390.203 175.918 389.272 175.834 388.335C175.834 387.407 175.834 386.462 175.834 385.518C175.834 381.724 175.834 377.801 176.026 373.783C176.218 368.692 176.474 363.777 176.778 359.103V358.862L177.003 358.766L185.439 355.052L185.535 355.789L179.132 354.94H178.587L178.86 354.476C183.022 347.336 186.48 341.364 188.961 337.09L191.827 332.287L192.612 331.038C192.691 330.885 192.794 330.745 192.916 330.622C192.867 330.785 192.797 330.941 192.708 331.086L192.019 332.399L189.314 337.33L179.484 354.86L179.212 354.332L185.615 355.132L186.976 355.292L185.728 355.853L177.323 359.599L177.563 359.247C177.275 363.921 177.019 368.852 176.826 373.911C176.682 377.913 176.586 381.82 176.618 385.598C176.618 386.542 176.618 387.471 176.618 388.399C176.688 389.294 176.821 390.182 177.019 391.057C177.397 392.779 177.873 394.479 178.443 396.148C180.701 402.696 183.246 408.411 185.471 413.198C187.697 417.984 189.522 421.795 190.818 424.404L192.291 427.446C192.483 427.796 192.649 428.16 192.788 428.534Z" fill="#263238"/>
<path d="M98.4614 380.043C98.4614 380.043 94.331 383.02 94.4431 384.717C94.4442 385.464 94.6269 386.2 94.9755 386.861C95.3241 387.522 95.8281 388.089 96.4442 388.511C97.4048 388.832 100.254 390.304 100.254 390.304C100.254 390.304 97.7089 392.738 98.4614 395.283C98.6003 395.963 98.8895 396.604 99.3077 397.158C99.726 397.712 100.263 398.165 100.879 398.485C100.937 400.256 101.295 402.004 101.935 403.656C102.908 404.976 104.343 405.879 105.954 406.186C106.852 408.008 107.924 409.74 109.156 411.357C110.392 412.504 111.931 413.276 113.59 413.582C113.59 413.582 117.4 414.014 119.401 412.637C120.76 411.954 121.893 410.892 122.663 409.58C123.432 408.268 123.806 406.761 123.74 405.241C123.74 405.241 132.833 400.694 132.929 398.373C133.025 396.052 131.985 395.315 131.985 395.315L127.438 396.148C127.438 396.148 126.798 393.73 125.437 393.506C124.076 393.282 107.475 397.316 107.475 397.316C107.475 397.316 118.777 395.523 119.097 393.298C119.417 391.073 119.513 389.184 117.816 388.752C116.12 388.319 104.097 389.632 104.097 389.632L103.456 387.487C103.456 387.487 106.658 387.599 106.658 384.749C106.658 381.9 104.865 381.259 104.865 381.259L98.4614 380.043Z" fill="#A2675F"/>
<path d="M192.788 330.59L194.164 341.62L185.631 389.6L194.292 431.016L239.182 444.287L256.84 436.667L250.805 320.408L234.764 309.138L228.6 304.991L205.483 339.988L192.788 330.59Z" fill="#FAFAFA"/>
<path d="M233.531 308.257L244.737 313.252L284.472 318.599L305.909 431.336L308.598 444.288L349.694 505.779C350.14 506.446 350.443 507.198 350.586 507.988C350.728 508.778 350.706 509.589 350.521 510.37C350.337 511.151 349.993 511.886 349.512 512.528C349.031 513.17 348.422 513.707 347.725 514.104L314.105 533.315C312.856 533.955 311.415 534.112 310.057 533.758C308.699 533.404 307.519 532.562 306.741 531.394L263.949 466.957L242.752 439.821C242.752 439.821 230.057 401.399 228.344 385.053C227.011 370.724 227.011 356.302 228.344 341.973C229.337 332.191 233.531 308.257 233.531 308.257Z" fill="#6BA32D"/>
<path d="M284.408 318.599C286.995 319.957 289.241 321.882 290.979 324.23C292.718 326.578 293.903 329.289 294.446 332.159C296.976 345.543 304.596 368.884 307.462 393.81C311.464 428.679 302.082 439.437 297.664 445.456C293.245 451.476 265.838 464.251 265.838 464.251L245.234 436.811L268.047 418.112L266.046 369.685C266.046 369.685 258.041 358.67 262.043 342.309C266.046 325.947 277.732 317.607 284.456 318.599H284.408Z" fill="#6BA32D"/>
<g opacity="0.3">
<path d="M305.669 430.424C302.547 438.876 298.977 446.016 291.708 450.035C283.96 454.325 273.186 460.377 265.838 464.251L271.217 472.608C279.654 471.311 295.231 461.481 300.289 454.613C305.186 447.568 307.118 438.88 305.669 430.424Z" fill="black"/>
</g>
<path d="M265.549 372.214C265.618 372.45 265.666 372.691 265.694 372.935C265.79 373.463 265.902 374.167 266.062 375.064C266.35 377.001 266.782 379.754 267.326 383.292C268.415 390.497 269.968 400.903 271.873 413.71V413.87L271.745 413.982L245.506 437.099V436.603L266.126 464.027L265.613 463.915C272.465 460.457 279.557 456.711 286.57 452.564C288.571 451.364 290.54 450.163 292.445 448.866C294.338 447.648 296.112 446.254 297.744 444.704C300.523 441.256 302.724 437.379 304.26 433.225C307.087 425.29 308.396 416.894 308.118 408.475C307.926 400.839 307.194 393.226 305.925 385.694C304.82 378.602 303.539 372.038 302.275 366.067C299.761 354.108 297.328 344.518 295.631 337.906C294.766 334.705 294.03 332.079 293.63 330.302C293.405 329.453 293.229 328.797 293.117 328.317C293.037 328.094 292.983 327.863 292.957 327.628C292.957 327.628 293.053 327.853 293.197 328.285C293.341 328.717 293.534 329.421 293.79 330.254C294.302 331.967 295.038 334.528 295.951 337.826C297.744 344.422 300.257 353.996 302.851 365.938C304.164 371.91 305.476 378.49 306.613 385.598C307.915 393.154 308.669 400.794 308.87 408.459C309.179 416.983 307.876 425.489 305.028 433.529C303.455 437.777 301.2 441.741 298.352 445.264C296.684 446.87 294.861 448.308 292.909 449.555C290.988 450.851 289.003 452.068 287.002 453.269C279.942 457.447 272.866 461.193 265.982 464.635L265.678 464.795L265.469 464.523L244.898 437.051L244.689 436.763L244.946 436.539L271.281 413.518L271.185 413.79C269.376 400.983 267.983 390.609 266.91 383.372C266.43 379.834 266.046 376.969 265.79 375.128C265.677 374.215 265.581 373.527 265.517 372.983C265.512 372.726 265.523 372.469 265.549 372.214Z" fill="#263238"/>
<path d="M236.461 413.63C236.45 413.254 236.482 412.878 236.557 412.509C236.653 411.709 236.797 410.652 236.957 409.307C237.373 406.458 237.934 402.503 238.638 397.669C240.031 387.839 242.224 374.295 244.353 359.247C245.346 351.978 246.29 345.062 247.139 338.755L247.395 339.155L240.607 336.562L239.935 336.305L240.527 335.921L247.347 331.503L247.219 331.807C246.402 326.156 245.746 321.529 245.266 318.199C245.074 316.598 244.898 315.429 244.785 314.485C244.701 314.053 244.664 313.612 244.673 313.172C244.806 313.59 244.902 314.018 244.962 314.453C245.122 315.397 245.346 316.614 245.618 318.151C246.162 321.465 246.915 326.076 247.827 331.711V331.919L247.667 332.031L240.895 336.514L240.815 335.889L247.635 338.435L247.923 338.547V338.851C247.091 345.159 246.162 352.09 245.186 359.359C243.073 374.359 240.783 387.903 239.23 397.781C238.43 402.584 237.773 406.554 237.293 409.387L236.733 412.589C236.675 412.944 236.584 413.292 236.461 413.63Z" fill="#263238"/>
<path d="M278.357 320.12C278.453 320.248 276.42 321.721 273.682 324.491C272.093 326.159 270.647 327.958 269.36 329.87C266.173 334.559 263.993 339.857 262.956 345.431C262.538 347.697 262.313 349.994 262.284 352.299C262.284 356.253 262.716 358.702 262.556 358.702C262.34 358.158 262.2 357.587 262.139 357.005C262.003 356.345 261.907 355.676 261.851 355.004C261.752 354.106 261.698 353.203 261.691 352.299C261.63 349.951 261.796 347.602 262.188 345.287C262.703 342.457 263.497 339.684 264.557 337.01C265.673 334.355 267.051 331.818 268.671 329.437C270.012 327.509 271.535 325.713 273.218 324.074C273.854 323.443 274.522 322.845 275.219 322.281C275.729 321.835 276.263 321.418 276.82 321.033C277.29 320.662 277.807 320.355 278.357 320.12Z" fill="#263238"/>
<path d="M163.619 408.779C163.395 408.779 162.658 401.031 162.018 391.425C161.378 381.82 160.977 374.039 161.217 374.007C161.458 373.975 162.178 381.772 162.818 391.361C163.459 400.951 163.843 408.763 163.619 408.779Z" fill="#263238"/>
<path d="M298.961 479.46L305.124 492.043L333.669 473.776L323.791 462.586L298.961 479.46Z" fill="#6BA32D"/>
<path d="M298.961 479.476C299.501 479.005 300.073 478.571 300.674 478.179L305.701 474.641L323.567 462.282L323.855 462.09L324.079 462.346L333.989 473.552L334.309 473.921L333.893 474.177L332.644 474.977L305.284 492.283L304.996 492.459L304.868 492.155L300.45 482.806C299.985 481.781 299.601 480.949 299.313 480.292C299.17 480.02 299.052 479.737 298.961 479.444C299.161 479.719 299.333 480.014 299.473 480.324C299.809 480.981 300.241 481.813 300.786 482.822L305.396 491.899L304.964 491.787L332.18 474.177L333.428 473.376V474.001C329.938 470.046 326.609 466.268 323.567 462.794H324.079L306.197 474.721L300.978 478.131L299.553 479.044L298.961 479.476Z" fill="#263238"/>
<g opacity="0.3">
<path d="M299.169 480.02C299.297 480.26 305.572 499.343 305.572 499.343L332.196 480.452L329.906 476.274L305.124 492.123L299.169 480.02Z" fill="black"/>
</g>
<g opacity="0.3">
<path d="M245.474 318.519L250.277 334.128L245.474 336.305L251.798 339.411C251.798 339.411 241.84 393.842 240.591 398.805C239.342 403.768 237.805 405.369 237.805 405.369L247.523 338.883L240.735 336.305L247.523 331.839L245.474 318.519Z" fill="black"/>
</g>
<path d="M140.149 403.576C140.023 399.832 139.415 396.119 138.34 392.53C137.001 389.038 135.226 385.73 133.057 382.684C133.969 383.34 134.751 384.16 135.363 385.101C138.621 389.486 140.419 394.784 140.502 400.246C140.585 401.368 140.466 402.496 140.149 403.576Z" fill="#263238"/>
<g opacity="0.3">
<path d="M160.977 372.47C156.175 384.317 157.952 397.3 163.507 408.779C162.642 395.572 162.13 385.278 160.977 372.47Z" fill="black"/>
</g>
<path d="M230.057 318.119C229.841 318.682 229.561 319.219 229.225 319.72L226.743 323.866C224.662 327.388 221.94 332.287 219.171 337.874C217.314 341.636 215.729 345.239 214.368 348.28L214.192 348.729L213.824 348.44C211.708 346.752 209.717 344.911 207.868 342.933C207.127 342.223 206.471 341.427 205.915 340.564C206.716 341.204 207.47 341.899 208.172 342.645C210.11 344.488 212.14 346.23 214.256 347.864L213.712 348.008C214.944 344.918 216.497 341.3 218.354 337.506C220.7 332.718 223.308 328.063 226.167 323.562C227.271 321.833 228.216 320.472 228.888 319.544C229.218 319.023 229.611 318.544 230.057 318.119Z" fill="#263238"/>
<path d="M203.77 340.196C203.14 342.991 202.245 345.719 201.096 348.344L200.888 348.905L200.44 348.52L200.232 348.328C197.903 346.476 195.901 344.246 194.308 341.733C194.485 341.572 197.126 344.518 200.712 347.704L200.92 347.88L200.264 348.056C201.178 345.33 202.352 342.698 203.77 340.196Z" fill="#263238"/>
<path d="M208.477 422.115C208.387 421.869 208.344 421.608 208.349 421.346C208.349 420.722 208.22 419.986 208.14 419.089C208.012 416.992 207.82 414.19 207.596 410.78C207.164 403.768 206.668 394.083 206.235 383.372C205.803 372.662 205.579 362.961 205.579 355.933C205.579 352.411 205.579 349.529 205.691 347.608C205.691 346.711 205.691 346.007 205.803 345.351C205.803 345.086 205.835 344.823 205.899 344.566C205.943 344.826 205.943 345.091 205.899 345.351C205.899 345.959 205.899 346.711 205.899 347.608C205.899 349.705 205.995 352.507 206.059 355.917C206.203 362.945 206.54 372.63 206.956 383.34C207.372 394.051 207.772 403.624 208.06 410.748C208.188 414.174 208.285 416.976 208.365 419.073C208.365 419.97 208.365 420.674 208.365 421.33C208.426 421.588 208.464 421.85 208.477 422.115Z" fill="#263238"/>
<path d="M114.743 638.319L118.889 677.398C118.889 677.398 80.467 694.751 80.6111 702.036L156.687 696.737L152.733 635.549L114.743 638.319Z" fill="#6BA32D"/>
<path d="M142.183 672.467C142.921 672.654 143.569 673.099 144.009 673.721C144.449 674.343 144.653 675.102 144.584 675.861C144.439 676.613 144.012 677.281 143.389 677.728C142.767 678.175 141.997 678.366 141.238 678.262C140.439 678.095 139.733 677.629 139.266 676.96C138.799 676.29 138.605 675.468 138.725 674.66C138.952 673.89 139.47 673.239 140.17 672.845C140.869 672.45 141.694 672.343 142.471 672.547" fill="#E0E0E0"/>
<path d="M156.863 698.322L156.479 692.398L83.3487 697.969C83.3487 697.969 80.0508 699.682 80.6111 702.036L156.863 698.322Z" fill="#E0E0E0"/>
<path d="M117.624 677.109C117.624 677.478 119.529 677.51 121.451 678.582C123.372 679.655 124.444 681.144 124.764 680.968C125.085 680.792 124.396 678.694 122.059 677.446C119.722 676.197 117.528 676.773 117.624 677.109Z" fill="#263238"/>
<path d="M109.876 680.968C109.876 681.32 111.477 681.848 112.838 683.337C114.198 684.826 114.695 686.443 115.063 686.411C115.431 686.379 115.527 684.25 113.782 682.44C112.037 680.631 109.86 680.599 109.876 680.968Z" fill="#263238"/>
<path d="M106.018 690.797C106.354 690.797 106.738 688.956 105.65 686.987C104.561 685.018 102.752 684.33 102.624 684.65C102.496 684.97 103.632 685.995 104.513 687.611C105.393 689.228 105.633 690.797 106.018 690.797Z" fill="#263238"/>
<path d="M117.672 668.096C117.849 668.416 119.513 667.792 121.627 667.776C123.74 667.76 125.421 668.32 125.597 668C125.773 667.68 124.092 666.399 121.611 666.479C119.129 666.559 117.464 667.808 117.672 668.096Z" fill="#263238"/>
<path d="M101.199 480.58L65.9787 497.998C65.9787 497.998 36.4257 468.029 29.6058 470.623L60.9198 540.151L116.952 515.256L101.199 480.58Z" fill="#6BA32D"/>
<path d="M78.658 518.138C78.7583 518.899 78.5734 519.67 78.1389 520.303C77.7043 520.935 77.0509 521.385 76.3046 521.564C75.5488 521.693 74.7724 521.525 74.1372 521.095C73.502 520.666 73.0569 520.008 72.8947 519.259C72.7754 518.451 72.9692 517.628 73.4364 516.959C73.9036 516.289 74.6089 515.823 75.4081 515.657C76.1956 515.628 76.9645 515.9 77.559 516.417C78.1535 516.934 78.5292 517.658 78.6099 518.442" fill="#E0E0E0"/>
<path d="M59.4789 540.871L64.9061 538.454L34.3445 471.775C34.3445 471.775 31.6069 469.294 29.5417 470.623L59.4789 540.871Z" fill="#E0E0E0"/>
<path d="M65.8026 496.718C65.4664 496.878 66.0747 498.639 65.8026 500.8C65.5304 502.961 64.4418 504.498 64.714 504.754C64.9861 505.01 66.7311 503.618 67.0833 500.992C67.4355 498.367 66.0907 496.494 65.8026 496.718Z" fill="#263238"/>
<path d="M59.495 490.778C59.1428 490.778 59.2228 492.587 58.3103 494.38C57.3977 496.173 56.021 497.198 56.181 497.582C56.3411 497.966 58.3743 497.262 59.4629 495.005C60.5516 492.747 59.8311 490.682 59.495 490.778Z" fill="#263238"/>
<path d="M48.9129 490.57C48.9129 490.906 50.882 490.57 52.3548 488.969C53.8277 487.368 53.8437 485.335 53.4915 485.319C53.1393 485.303 52.595 486.744 51.3623 488.121C50.1296 489.497 48.7848 490.218 48.9129 490.57Z" fill="#263238"/>
<path d="M74.2715 493.628C74.0313 493.916 75.2 495.229 75.8724 497.246C76.5448 499.263 76.6728 500.992 77.041 501.024C77.4093 501.056 77.9856 499.087 77.041 496.782C76.0965 494.476 74.4636 493.34 74.2715 493.628Z" fill="#263238"/>
<path d="M118.393 502.737C114.584 503.687 111.128 505.711 108.438 508.569C105.747 511.428 103.934 514.999 103.216 518.858C100.639 532.418 109.972 668.801 109.972 668.801L157.84 664.958L154.91 573.066L153.725 554.527L157.84 551.325L241.968 536.517L229.161 501.745L215.088 477.25L150.651 493.26L118.393 502.737Z" fill="#263238"/>
<path d="M276.756 479.764C276.756 479.764 241.952 429.447 231.77 422.131C223.381 416.095 210.766 416.111 202.953 419.617C195.141 423.123 73.2789 483.574 73.2789 483.574L91.1612 528.4L207.164 488.201L224.454 515.416L240.559 536.741L285.769 537.093C287.898 537.093 297.616 517.882 297.616 517.882L276.756 479.764Z" fill="#263238"/>
<path d="M102.768 529.376C102.744 529.223 102.744 529.066 102.768 528.912C102.768 528.544 102.768 528.096 102.768 527.535C102.768 526.975 102.768 526.159 102.768 525.278C102.768 524.398 102.976 523.373 103.104 522.22C103.232 521.068 103.6 519.835 103.856 518.442C104.001 517.754 104.289 517.065 104.513 516.345C104.745 515.583 105.034 514.839 105.377 514.12C106.859 510.649 109.221 507.625 112.229 505.347C113.982 504.013 115.977 503.034 118.105 502.465L125.037 501.28L140.293 498.735L175.274 492.94L207.036 487.737H207.292L207.436 487.961C216.737 502.481 224.294 515.176 230.649 523.373C233.723 527.519 236.189 530.817 237.918 533.123C238.734 534.227 239.374 535.092 239.855 535.716L240.335 536.388L240.495 536.629C240.495 536.629 240.495 536.629 240.287 536.437L239.743 535.796L237.709 533.283C235.948 531.073 233.387 527.824 230.265 523.677C223.781 515.48 216.113 502.865 206.78 488.457L207.164 488.633L175.402 493.884L140.421 499.615L125.149 502.097L118.249 503.217C116.199 503.756 114.27 504.679 112.565 505.939C109.621 508.146 107.295 511.073 105.81 514.44C105.455 515.139 105.16 515.868 104.929 516.617C104.661 517.292 104.432 517.982 104.241 518.682C103.905 519.905 103.638 521.145 103.44 522.396L103.008 525.422C103.008 526.287 102.912 527.023 102.88 527.663C102.848 528.304 102.88 528.688 102.784 529.04C102.787 529.153 102.782 529.265 102.768 529.376Z" fill="#455A64"/>
<path d="M223.765 457.063C223.886 457.534 223.945 458.018 223.942 458.504C224.048 459.82 224.048 461.142 223.942 462.458C223.761 464.418 223.402 466.358 222.869 468.253C222.193 470.567 221.303 472.813 220.211 474.961C219.063 477.08 217.723 479.09 216.209 480.965C214.945 482.475 213.552 483.873 212.047 485.143C211.045 485.998 209.974 486.769 208.845 487.448C208.447 487.734 208.01 487.96 207.548 488.121C207.468 487.993 209.149 486.904 211.662 484.695C213.083 483.396 214.4 481.989 215.601 480.484C217.06 478.63 218.356 476.654 219.475 474.577C220.545 472.474 221.434 470.283 222.132 468.029C222.691 466.187 223.098 464.302 223.349 462.394C223.717 459.144 223.605 457.063 223.765 457.063Z" fill="#455A64"/>
<path d="M627.197 616.643L417.717 616.531C405.617 616.522 394.016 611.71 385.464 603.151C376.911 594.592 372.107 582.988 372.107 570.888L372.219 45.6263C372.219 39.6318 373.4 33.6962 375.695 28.1585C377.99 22.6207 381.354 17.5895 385.594 13.3523C389.834 9.11509 394.867 5.75496 400.407 3.46391C405.946 1.17286 411.883 -0.00419537 417.877 1.12356e-05L627.358 0.19212C639.457 0.200608 651.058 5.01308 659.611 13.5717C668.163 22.1304 672.968 33.7348 672.968 45.8344L672.872 571.032C672.867 577.026 671.683 582.961 669.385 588.497C667.088 594.033 663.722 599.062 659.481 603.297C655.24 607.532 650.206 610.891 644.666 613.181C639.127 615.47 633.191 616.647 627.197 616.643Z" fill="#263238"/>
<path d="M627.133 18.7628H586.518C583.844 18.8258 581.305 19.9465 579.456 21.8792C577.607 23.8119 576.601 26.3988 576.656 29.0727V36.437C576.686 37.7615 576.455 39.079 575.975 40.3141C575.496 41.5491 574.777 42.6776 573.862 43.6351C572.946 44.5925 571.85 45.3601 570.638 45.894C569.425 46.428 568.119 46.7178 566.795 46.7469H487.629C486.305 46.7178 484.999 46.428 483.786 45.894C482.574 45.3601 481.478 44.5925 480.562 43.6351C479.647 42.6776 478.928 41.5491 478.449 40.3141C477.969 39.079 477.738 37.7615 477.768 36.437V28.9767C477.823 26.3028 476.817 23.7159 474.968 21.7832C473.119 19.8505 470.58 18.7297 467.906 18.6667H453.61H418.069C409.577 18.6667 401.433 22.0401 395.429 28.0447C389.424 34.0493 386.051 42.1934 386.051 50.6852L385.955 563.316C385.955 571.794 389.317 579.926 395.304 585.928C401.292 591.93 409.415 595.313 417.893 595.334L626.973 595.446C635.465 595.446 643.609 592.073 649.614 586.068C655.618 580.064 658.992 571.92 658.992 563.428L659.104 50.7972C659.108 42.311 655.743 34.1701 649.748 28.1634C643.754 22.1567 635.62 18.7755 627.133 18.7628Z" fill="white"/>
<path d="M659.088 50.7332C659.088 42.2414 655.714 34.0974 649.71 28.0927C643.705 22.0881 635.561 18.7148 627.069 18.7148H586.454C583.78 18.7778 581.241 19.8985 579.392 21.8312C577.543 23.7639 576.536 26.3508 576.592 29.0247V36.3889C576.622 37.7135 576.391 39.031 575.911 40.266C575.431 41.5011 574.713 42.6296 573.797 43.587C572.882 44.5445 571.786 45.3121 570.574 45.846C569.361 46.38 568.055 46.6698 566.731 46.6989H487.565C486.241 46.6698 484.935 46.38 483.722 45.846C482.51 45.3121 481.414 44.5445 480.498 43.587C479.583 42.6296 478.864 41.5011 478.385 40.266C477.905 39.031 477.674 37.7135 477.703 36.3889V28.9767C477.759 26.3028 476.752 23.7159 474.904 21.7832C473.055 19.8505 470.516 18.7297 467.842 18.6667H453.546H418.005C409.513 18.6667 401.369 22.0401 395.365 28.0447C389.36 34.0493 385.987 42.1934 385.987 50.6852L385.891 99.7054H659.072L659.088 50.7332Z" fill="#F5F5F5"/>
<path d="M636.867 68.7435C636.867 68.8876 631.968 69.0637 625.933 69.1118C622.287 69.2372 618.637 69.173 614.998 68.9196C622.28 68.4875 629.579 68.4287 636.867 68.7435Z" fill="#263238"/>
<path d="M636.963 74.3308C633.333 74.6441 629.688 74.767 626.045 74.699C622.399 74.8244 618.749 74.7603 615.11 74.5069C615.11 74.3628 619.993 74.2027 626.045 74.1387C632.096 74.0746 636.963 74.1867 636.963 74.3308Z" fill="#263238"/>
<path d="M636.963 79.934C636.963 80.0781 632.08 80.2382 626.045 80.2862C622.399 80.4116 618.75 80.3529 615.11 80.1101C622.387 79.6778 629.681 79.6191 636.963 79.934Z" fill="#263238"/>
<path d="M446.63 455.846L447.734 453.525C449.679 455.102 452.114 455.951 454.618 455.926C458.204 455.926 459.757 454.533 459.757 452.724C459.757 447.649 447.142 450.851 447.142 443.119C447.142 439.917 449.639 437.163 455.146 437.163C457.51 437.118 459.836 437.764 461.838 439.021L460.862 441.374C459.153 440.284 457.173 439.696 455.146 439.677C451.608 439.677 450.088 441.166 450.088 442.991C450.088 448.082 462.703 444.896 462.703 452.596C462.703 455.798 460.141 458.52 454.698 458.52C451.778 458.602 448.922 457.656 446.63 455.846Z" fill="#263238"/>
<path d="M465.136 450.339C465.119 449.254 465.326 448.178 465.743 447.177C466.161 446.175 466.78 445.271 467.563 444.52C468.346 443.769 469.275 443.187 470.292 442.811C471.31 442.435 472.394 442.273 473.477 442.334C474.749 442.26 476.018 442.534 477.146 443.126C478.274 443.718 479.22 444.607 479.881 445.696L477.719 447.089C477.257 446.377 476.62 445.796 475.869 445.401C475.117 445.006 474.278 444.81 473.429 444.832C472.009 444.908 470.673 445.526 469.695 446.558C468.717 447.59 468.172 448.957 468.172 450.379C468.172 451.801 468.717 453.168 469.695 454.2C470.673 455.232 472.009 455.85 473.429 455.926C474.278 455.953 475.12 455.759 475.872 455.363C476.624 454.968 477.26 454.384 477.719 453.669L479.881 455.046C479.218 456.134 478.272 457.023 477.145 457.618C476.017 458.213 474.75 458.491 473.477 458.424C472.388 458.484 471.298 458.317 470.276 457.936C469.254 457.554 468.322 456.965 467.538 456.206C466.755 455.446 466.137 454.533 465.724 453.524C465.31 452.514 465.11 451.43 465.136 450.339Z" fill="#263238"/>
<path d="M496.082 448.706V458.216H493.376V456.134C492.775 456.917 491.986 457.534 491.082 457.929C490.177 458.323 489.188 458.483 488.206 458.392C484.635 458.392 482.362 456.487 482.362 453.749C482.362 451.011 483.963 449.138 488.766 449.138H493.296V448.578C493.296 446.177 491.888 444.768 489.07 444.768C487.261 444.753 485.501 445.351 484.075 446.465L482.874 444.32C484.764 442.945 487.055 442.236 489.39 442.302C493.649 442.302 496.082 444.384 496.082 448.706ZM493.232 453.397V451.204H488.83C485.996 451.204 485.196 452.292 485.196 453.637C485.196 454.982 486.509 456.198 488.67 456.198C489.628 456.269 490.584 456.037 491.403 455.534C492.222 455.031 492.862 454.283 493.232 453.397Z" fill="#263238"/>
<path d="M516.35 449.138V458.216H513.484V449.475C513.484 446.385 511.883 444.864 509.242 444.864C508.551 444.812 507.857 444.913 507.21 445.161C506.563 445.409 505.979 445.797 505.5 446.298C505.02 446.798 504.658 447.399 504.439 448.056C504.219 448.713 504.148 449.411 504.231 450.099V458.216H501.381V442.446H504.087V444.832C504.763 443.987 505.632 443.316 506.621 442.876C507.609 442.436 508.689 442.239 509.77 442.302C513.692 442.302 516.35 444.512 516.35 449.138Z" fill="#263238"/>
<path d="M536.601 449.138V458.216H533.752V449.475C533.752 446.385 532.151 444.864 529.493 444.864C528.803 444.811 528.11 444.913 527.463 445.161C526.817 445.409 526.233 445.797 525.756 446.298C525.278 446.799 524.917 447.4 524.699 448.057C524.482 448.714 524.413 449.412 524.498 450.099V458.216H521.697V442.446H524.434V444.832C525.109 443.985 525.977 443.312 526.967 442.872C527.956 442.432 529.037 442.236 530.118 442.302C533.896 442.302 536.601 444.512 536.601 449.138Z" fill="#263238"/>
<path d="M541.404 437.564C541.388 437.177 541.488 436.794 541.692 436.465C541.896 436.136 542.193 435.875 542.546 435.716C542.9 435.558 543.292 435.509 543.674 435.576C544.055 435.642 544.408 435.822 544.686 436.091C544.964 436.36 545.156 436.706 545.235 437.085C545.315 437.464 545.279 437.858 545.133 438.216C544.986 438.575 544.736 438.881 544.414 439.096C544.091 439.31 543.712 439.424 543.325 439.421C543.077 439.427 542.829 439.384 542.597 439.294C542.366 439.203 542.154 439.068 541.975 438.895C541.796 438.722 541.654 438.515 541.556 438.287C541.458 438.058 541.406 437.812 541.404 437.564ZM541.9 442.446H544.766V458.216H541.9V442.446Z" fill="#263238"/>
<path d="M565.178 449.138V458.216H562.312V449.475C562.312 446.385 560.711 444.864 558.054 444.864C557.363 444.811 556.67 444.913 556.024 445.161C555.377 445.409 554.794 445.797 554.316 446.298C553.838 446.799 553.477 447.4 553.26 448.057C553.043 448.714 552.974 449.412 553.059 450.099V458.216H550.209V442.446H552.947V444.832C553.623 443.987 554.492 443.316 555.481 442.876C556.47 442.436 557.55 442.239 558.63 442.302C562.456 442.302 565.178 444.512 565.178 449.138Z" fill="#263238"/>
<path d="M585.638 442.446V456.086C585.638 461.642 582.82 464.171 577.457 464.171C574.752 464.284 572.091 463.452 569.933 461.818L571.293 459.624C573.022 460.981 575.163 461.705 577.361 461.674C581.091 461.674 582.788 459.945 582.788 456.374V455.126C582.079 455.926 581.202 456.559 580.219 456.98C579.237 457.401 578.173 457.599 577.105 457.559C576.073 457.606 575.043 457.444 574.077 457.082C573.11 456.72 572.227 456.166 571.48 455.453C570.734 454.74 570.14 453.883 569.734 452.934C569.328 451.985 569.119 450.963 569.119 449.931C569.119 448.899 569.328 447.877 569.734 446.928C570.14 445.979 570.734 445.122 571.48 444.409C572.227 443.696 573.11 443.142 574.077 442.779C575.043 442.417 576.073 442.255 577.105 442.302C578.21 442.258 579.31 442.469 580.321 442.919C581.332 443.369 582.225 444.045 582.932 444.896V442.446H585.638ZM582.836 449.923C582.897 448.834 582.629 447.752 582.068 446.817C581.507 445.882 580.678 445.137 579.688 444.679C578.698 444.221 577.594 444.071 576.518 444.248C575.442 444.425 574.444 444.921 573.653 445.672C572.862 446.423 572.315 447.394 572.083 448.459C571.851 449.525 571.944 450.636 572.35 451.648C572.757 452.659 573.458 453.526 574.363 454.135C575.268 454.743 576.334 455.066 577.425 455.062C578.126 455.116 578.831 455.022 579.494 454.786C580.156 454.551 580.762 454.179 581.272 453.695C581.782 453.21 582.185 452.624 582.454 451.975C582.724 451.325 582.854 450.626 582.836 449.923Z" fill="#263238"/>
<path d="M589.736 456.342C589.732 456.075 589.781 455.809 589.882 455.562C589.983 455.314 590.133 455.089 590.323 454.901C590.513 454.712 590.739 454.564 590.987 454.465C591.236 454.366 591.502 454.319 591.769 454.325C592.308 454.325 592.825 454.54 593.207 454.921C593.588 455.302 593.802 455.819 593.802 456.358C593.802 456.898 593.588 457.415 593.207 457.796C592.825 458.177 592.308 458.392 591.769 458.392C591.5 458.394 591.233 458.342 590.985 458.24C590.736 458.137 590.51 457.986 590.321 457.795C590.131 457.604 589.982 457.377 589.882 457.128C589.781 456.878 589.732 456.611 589.736 456.342Z" fill="#263238"/>
<path d="M596.492 456.342C596.487 456.075 596.537 455.809 596.638 455.562C596.739 455.314 596.889 455.089 597.078 454.901C597.268 454.712 597.494 454.564 597.743 454.465C597.992 454.366 598.258 454.319 598.525 454.325C599.064 454.325 599.581 454.54 599.963 454.921C600.344 455.302 600.558 455.819 600.558 456.358C600.558 456.898 600.344 457.415 599.963 457.796C599.581 458.177 599.064 458.392 598.525 458.392C598.256 458.394 597.989 458.342 597.741 458.24C597.492 458.137 597.266 457.986 597.077 457.795C596.887 457.604 596.738 457.377 596.638 457.128C596.537 456.878 596.488 456.611 596.492 456.342Z" fill="#263238"/>
<path d="M603.248 456.342C603.243 456.075 603.293 455.809 603.394 455.562C603.495 455.314 603.645 455.089 603.834 454.901C604.024 454.712 604.25 454.564 604.499 454.465C604.747 454.366 605.013 454.319 605.281 454.325C605.82 454.325 606.337 454.54 606.719 454.921C607.1 455.302 607.314 455.819 607.314 456.358C607.314 456.898 607.1 457.415 606.719 457.796C606.337 458.177 605.82 458.392 605.281 458.392C605.012 458.394 604.745 458.342 604.497 458.24C604.248 458.137 604.022 457.986 603.833 457.795C603.643 457.604 603.494 457.377 603.393 457.128C603.293 456.878 603.243 456.611 603.248 456.342Z" fill="#263238"/>
<path d="M603.36 484.791H436.4C421.705 484.791 409.792 496.703 409.792 511.398V517.049C409.792 531.744 421.705 543.657 436.4 543.657H603.36C618.055 543.657 629.967 531.744 629.967 517.049V511.398C629.967 496.703 618.055 484.791 603.36 484.791Z" fill="#EBEBEB"/>
<path d="M606.866 525.294C606.866 525.518 569.1 525.71 522.545 525.71C475.99 525.71 438.209 525.518 438.209 525.294C438.209 525.07 475.958 524.878 522.545 524.878C569.132 524.878 606.866 525.054 606.866 525.294Z" fill="#263238"/>
<path d="M513.202 502.545H514.795V514.102C514.795 515.29 514.517 516.352 513.96 517.29C513.403 518.222 512.628 518.957 511.634 519.497C510.645 520.031 509.494 520.298 508.182 520.298C506.875 520.298 505.724 520.028 504.73 519.489C503.736 518.949 502.96 518.213 502.403 517.281C501.847 516.349 501.568 515.29 501.568 514.102V502.545H503.162V513.991C503.162 514.918 503.369 515.744 503.784 516.472C504.199 517.193 504.781 517.761 505.531 518.176C506.287 518.591 507.17 518.798 508.182 518.798C509.193 518.798 510.077 518.591 510.832 518.176C511.588 517.761 512.17 517.193 512.58 516.472C512.994 515.744 513.202 514.918 513.202 513.991V502.545ZM519.428 520V502.545H525.061C526.3 502.545 527.334 502.77 528.163 503.219C528.999 503.662 529.626 504.278 530.047 505.068C530.473 505.852 530.686 506.753 530.686 507.77C530.686 508.787 530.473 509.685 530.047 510.463C529.626 511.241 529.001 511.849 528.172 512.287C527.342 512.724 526.314 512.943 525.087 512.943H520.288V511.486H525.044C525.953 511.486 526.709 511.335 527.311 511.034C527.919 510.733 528.371 510.304 528.666 509.747C528.967 509.19 529.118 508.531 529.118 507.77C529.118 507.009 528.967 506.344 528.666 505.776C528.365 505.202 527.911 504.759 527.303 504.446C526.7 504.134 525.939 503.977 525.018 503.977H521.021V520H519.428ZM527.124 512.125L531.419 520H529.578L525.325 512.125H527.124ZM534.568 520V502.545H536.162V518.568H544.48V520H534.568Z" fill="black"/>
<path d="M430.668 293.577V303.487H440.578V293.577V283.651H430.668V293.577Z" fill="#263238"/>
<path d="M440.578 234.103H430.668V244.012H440.578V234.103Z" fill="#263238"/>
<path d="M501.829 343.221H491.92V353.131H501.829V343.221Z" fill="#263238"/>
<path d="M440.578 253.922V263.832H430.668V273.741H440.578V283.651H450.488H460.414V293.577H470.323V283.651H480.233V273.741V263.832H470.323V273.741H460.414H450.488V263.832V253.922V244.012H440.578V253.922Z" fill="#263238"/>
<path d="M460.414 234.103H450.488V244.012H460.414H470.323V234.103H460.414Z" fill="#263238"/>
<path d="M505.015 313.78H510.33V303.871H505.015H499.684V313.78H505.015Z" fill="#263238"/>
<path d="M480.233 244.012H470.323V253.922H480.233V244.012Z" fill="#263238"/>
<path d="M549.617 283.651H539.707V293.561H549.617V283.651Z" fill="#263238"/>
<path d="M559.527 174.628H549.617V184.538H559.527V174.628Z" fill="#263238"/>
<path d="M500.052 253.922V244.012H509.962V234.103H500.052V224.193H490.143V234.103H480.233V244.012H490.143V253.922V263.832V273.741V283.651H500.052V273.741V263.832H509.962V253.922H500.052Z" fill="#263238"/>
<path d="M549.617 353.035H559.526V343.125H549.617H539.707V353.035H549.617Z" fill="#263238"/>
<path d="M539.707 174.628H529.797V184.538H539.707V174.628Z" fill="#263238"/>
<path d="M537.226 253.922V244.012H527.316V234.103H517.406V244.012V253.922H507.497V263.832H517.406H527.316V253.922H537.226Z" fill="#263238"/>
<path d="M593.162 234.103H583.252V244.012H593.162V234.103Z" fill="#263238"/>
<path d="M490.431 283.651H480.521V293.561H490.431V283.651Z" fill="#263238"/>
<path d="M529.797 224.193V214.283H539.707V204.358H549.617H559.527V194.448H549.617V184.538H539.707V194.448H529.797V204.358H519.872V214.283H509.962V224.193H519.872H529.797Z" fill="#263238"/>
<path d="M529.797 293.577V283.651H539.707V273.741H529.797H519.872V283.651H509.962V293.577H519.872H529.797Z" fill="#263238"/>
<path d="M559.527 333.216V323.29H549.617H539.707V313.38H529.797V323.29H519.872V333.216H509.962H500.052V343.125H509.962H519.872H529.797V333.216H539.707V343.125H549.617V333.216H559.527Z" fill="#263238"/>
<path d="M519.872 184.538V174.628H509.962H500.052V184.538H490.143V194.448H500.052H509.962V184.538H519.872Z" fill="#263238"/>
<path d="M519.872 194.448H509.962V204.358H519.872V194.448Z" fill="#263238"/>
<path d="M544.654 234.103H534.744V244.012V253.922V263.832H544.654H554.564V253.922H544.654V244.012H554.564V234.103H564.473V224.193H554.564V214.283H544.654V224.193V234.103Z" fill="#263238"/>
<path d="M509.962 204.358H500.052V214.267H509.962V204.358Z" fill="#263238"/>
<path d="M539.707 303.487V313.396H549.617H559.526V303.487H569.436H579.346V293.577H569.436H559.526H549.617V303.487H539.707Z" fill="#263238"/>
<path d="M593.162 263.832H583.252V273.741H593.162V263.832Z" fill="#263238"/>
<path d="M559.527 273.741H549.617V283.651H559.527V273.741Z" fill="#263238"/>
<path d="M584.309 244.012H574.399H564.473V253.922H574.399V263.832H584.309V253.922V244.012Z" fill="#263238"/>
<path d="M579.346 273.741H569.436V283.651H579.346V273.741Z" fill="#263238"/>
<path d="M470.323 333.408H500.068V293.561H460.221V303.487H450.504V313.396H460.221V323.306H450.504V333.216H460.221V333.408H460.414V343.125H450.504V362.945H460.414V353.003H470.323V333.408ZM492.432 301.181V325.963H467.65V301.181H492.432Z" fill="#263238"/>
<path d="M599.165 293.577H609.075V283.651H599.165H589.256H579.346V293.577H589.256H599.165Z" fill="#263238"/>
<path d="M599.165 253.922H609.075V244.012V234.103H599.165V244.012V253.922Z" fill="#263238"/>
<path d="M520.256 303.871H510.33V313.78V323.69H520.256V313.78V303.871Z" fill="#263238"/>
<path d="M618.985 293.577H609.075V303.487H618.985V293.577Z" fill="#263238"/>
<path d="M619.001 273.741V263.832H609.075V273.741V283.651H619.001V273.741Z" fill="#263238"/>
<path d="M440.578 343.125H430.668V353.035V362.945H440.578V353.035V343.125Z" fill="#263238"/>
<path d="M619.001 224.193V174.564H569.372V224.193H619.001ZM576.864 216.749V182.057H611.556V216.749H576.864Z" fill="#263238"/>
<path d="M604.128 189.501H584.309V209.32H604.128V189.501Z" fill="#263238"/>
<path d="M619.001 313.396H569.372V362.945H619.001V313.396ZM576.864 355.516V320.825H611.556V355.516H576.864Z" fill="#263238"/>
<path d="M604.128 328.253H584.309V348.072H604.128V328.253Z" fill="#263238"/>
<path d="M430.556 174.628V224.257H480.073V174.628H430.556ZM472.677 182.057V216.749H437.985V182.057H472.677Z" fill="#263238"/>
<path d="M465.232 189.501H445.413V209.32H465.232V189.501Z" fill="#263238"/>
<path d="M416.42 209.176V173.956C416.195 170.724 417.189 167.526 419.206 164.991C420.413 163.658 421.901 162.608 423.561 161.916C425.222 161.224 427.014 160.907 428.811 160.989H465.825C466.118 160.989 466.399 160.872 466.606 160.665C466.813 160.458 466.929 160.177 466.929 159.884C466.929 159.591 466.813 159.31 466.606 159.103C466.399 158.896 466.118 158.779 465.825 158.779H429.26C426.163 158.624 423.091 159.399 420.439 161.005C418.532 162.274 416.966 163.992 415.878 166.007C414.789 168.022 414.211 170.273 414.195 172.563C414.099 178.359 414.195 184.17 414.195 189.949V209.16C414.228 209.432 414.359 209.683 414.564 209.865C414.769 210.047 415.034 210.147 415.308 210.147C415.582 210.147 415.846 210.047 416.051 209.865C416.256 209.683 416.387 209.432 416.42 209.16V209.176Z" fill="#6BA32D"/>
<path d="M462.623 379.69H427.403C424.172 379.908 420.976 378.915 418.437 376.905C417.106 375.696 416.057 374.208 415.365 372.548C414.674 370.888 414.356 369.096 414.435 367.299V330.238C414.435 329.945 414.319 329.664 414.112 329.457C413.904 329.25 413.623 329.133 413.33 329.133C413.037 329.133 412.756 329.25 412.549 329.457C412.342 329.664 412.226 329.945 412.226 330.238V366.851C412.072 369.947 412.847 373.019 414.451 375.672C415.72 377.577 417.438 379.142 419.454 380.228C421.469 381.314 423.72 381.888 426.01 381.9C431.805 381.996 437.6 381.9 443.396 381.9H462.607C462.9 381.9 463.181 381.783 463.388 381.576C463.595 381.369 463.711 381.088 463.711 380.795C463.711 380.502 463.595 380.221 463.388 380.014C463.181 379.807 462.9 379.69 462.607 379.69H462.623Z" fill="#6BA32D"/>
<path d="M632.064 329.886V365.106C632.29 368.338 631.296 371.536 629.279 374.071C628.072 375.405 626.585 376.456 624.924 377.148C623.263 377.84 621.47 378.156 619.673 378.073H582.612C582.319 378.073 582.038 378.19 581.831 378.397C581.624 378.604 581.507 378.885 581.507 379.178C581.507 379.471 581.624 379.752 581.831 379.959C582.038 380.166 582.319 380.283 582.612 380.283H619.225C622.321 380.438 625.394 379.663 628.046 378.057C629.951 376.788 631.516 375.07 632.602 373.055C633.687 371.039 634.262 368.788 634.274 366.499C634.386 360.703 634.274 354.908 634.274 349.113V329.902C634.274 329.609 634.157 329.328 633.95 329.121C633.743 328.913 633.462 328.797 633.169 328.797C632.876 328.797 632.595 328.913 632.388 329.121C632.181 329.328 632.064 329.609 632.064 329.902V329.886Z" fill="#6BA32D"/>
<path d="M583.252 161.005H618.472C621.706 160.784 624.905 161.783 627.438 163.806C628.775 165.01 629.828 166.497 630.521 168.158C631.213 169.82 631.527 171.614 631.44 173.412V210.521C631.44 210.814 631.556 211.095 631.763 211.302C631.971 211.509 632.252 211.626 632.544 211.626C632.837 211.626 633.118 211.509 633.326 211.302C633.533 211.095 633.649 210.814 633.649 210.521V173.86C633.805 170.758 633.03 167.681 631.424 165.023C630.155 163.118 628.437 161.553 626.421 160.467C624.406 159.381 622.155 158.807 619.865 158.795C614.07 158.699 608.275 158.795 602.479 158.795H583.268C582.975 158.795 582.694 158.912 582.487 159.119C582.28 159.326 582.164 159.607 582.164 159.9C582.164 160.193 582.28 160.474 582.487 160.681C582.694 160.888 582.975 161.005 583.268 161.005H583.252Z" fill="#6BA32D"/>
</svg>
